<svg width="40" height="40" viewBox="0 0 40 40" fill="none" xmlns="http://www.w3.org/2000/svg">
<rect width="40" height="40" fill="#14253E"/>
<path d="M19.9994 0.159424C14.7609 0.164482 9.73827 2.24698 6.03307 5.95015C2.32788 9.65333 0.242651 14.6749 0.234741 19.9134L0.234741 39.8275H5.63761V19.9134C5.64425 16.1075 7.15988 12.4596 9.85215 9.76958C12.5444 7.07955 16.1936 5.56696 19.9994 5.56348C21.4028 5.56 22.7988 5.76628 24.1412 6.17549C27.0892 7.07267 29.6721 8.89071 31.5114 11.363C33.3506 13.8354 34.3494 16.8319 34.3613 19.9134H39.7653C39.7555 14.6752 37.6695 9.65462 33.9645 5.95182C30.2594 2.24902 25.2376 0.166058 19.9994 0.159424Z" fill="white"/>
<path d="M23.672 19.9133H18.2679C18.3294 24.9892 20.2976 29.8563 23.7819 33.548C27.2661 37.2398 32.0113 39.486 37.0752 39.8406V34.4544C33.4468 34.0954 30.0768 32.4159 27.6055 29.735C25.1342 27.0542 23.734 23.5589 23.6708 19.9133" fill="white"/>
<path d="M31.7384 19.9736C31.7324 16.8628 30.4936 13.8813 28.2934 11.6822C26.0932 9.48317 23.111 8.24588 20.0003 8.24146C16.8885 8.2443 13.9048 9.48089 11.7033 11.6801C9.50186 13.8794 8.26224 16.8618 8.25623 19.9736V39.816H13.6603V19.9736C13.6744 18.6937 14.0744 17.4478 14.8081 16.399C15.5418 15.3502 16.575 14.5473 17.7725 14.0953C18.97 13.6432 20.276 13.5632 21.5197 13.8655C22.7635 14.1679 23.887 14.8386 24.7433 15.7899C25.2753 16.3451 25.6903 17.0015 25.9636 17.7202C26.2369 18.4389 26.363 19.2052 26.3343 19.9736C26.332 22.9263 27.4319 25.7735 29.4186 27.9579C31.4053 30.1423 34.1358 31.5064 37.0755 31.7834V26.3375C35.5784 26.076 34.2217 25.2941 33.245 24.1297C32.2683 22.9653 31.7354 21.4934 31.7384 19.9736Z" fill="white"/>
</svg>
