<svg width="199" height="40" viewBox="0 0 199 40" fill="none" xmlns="http://www.w3.org/2000/svg">
<path d="M53.5833 11.4328H56.2488C56.4879 11.4328 56.7628 11.4328 57.0066 11.4089L60.2101 17.9138H63.7077L60.0679 10.822C61.0501 10.497 61.8992 9.86016 62.4863 9.00835C63.0734 8.15654 63.3663 7.13633 63.3204 6.10282C63.3204 2.55749 60.5328 0.796776 56.2536 0.796776H50.4336V17.9138H53.588L53.5833 11.4328ZM53.5833 3.31413H56.2488C58.7184 3.31413 60.1862 4.09707 60.1862 6.10163C60.1862 8.10618 58.7184 8.91422 56.2488 8.91422H53.5833V3.31413Z" fill="white"/>
<path d="M70.2976 10.4058C66.1402 10.7477 64.3066 12.2156 64.3066 14.4699C64.3066 16.502 65.9203 18.1623 68.7078 18.1623C69.5433 18.2497 70.3851 18.0725 71.1144 17.6555C71.8436 17.2385 72.4235 16.603 72.7719 15.8386C72.7937 16.5435 72.9086 17.2425 73.1138 17.9172H76.1212C75.7522 16.7467 75.5707 15.5251 75.5833 14.2978V10.3078C75.5833 6.2975 73.3576 4.95276 70.2773 4.95276C68.9831 4.87608 67.7043 5.26554 66.6726 6.05057C65.6408 6.8356 64.9244 7.96427 64.6533 9.23202H67.7348C67.8116 8.65166 68.1081 8.12284 68.563 7.7544C69.018 7.38596 69.5968 7.20593 70.1805 7.25137C71.6232 7.25137 72.4515 7.9602 72.4515 9.84403V10.211L70.2976 10.4058ZM72.4492 13.1933C72.4766 13.5708 72.4228 13.9498 72.2915 14.3047C72.1602 14.6597 71.9544 14.9824 71.6879 15.2511C71.4214 15.5199 71.1004 15.7284 70.7466 15.8628C70.3928 15.9971 70.0143 16.054 69.6366 16.0298C68.1209 16.0298 67.4599 15.174 67.4599 14.2691C67.4599 13.0738 68.5608 12.5084 70.9323 12.3375L72.448 12.2395L72.4492 13.1933Z" fill="white"/>
<path d="M80.9813 0.478416H77.7539V3.65798H80.9813V0.478416Z" fill="white"/>
<path d="M80.9572 5.19717H77.8027V17.913H80.9572V5.19717Z" fill="white"/>
<path d="M86.3869 0.796776H83.2324V17.915H86.3869V0.796776Z" fill="white"/>
<path d="M97.7326 0.796776H94.5781V17.915H97.7326V0.796776Z" fill="white"/>
<path d="M103.492 10.9446C103.492 8.67346 104.544 7.39924 106.305 7.39924C107.846 7.39924 108.677 8.45113 108.677 10.5537V17.9145H111.831V10.0887C111.831 6.5924 110.046 4.94883 107.43 4.94883C106.649 4.90945 105.873 5.07955 105.181 5.44149C104.488 5.80342 103.905 6.34401 103.492 7.00718V5.19745H100.338V17.9145H103.492V10.9446Z" fill="white"/>
<path d="M122.821 16.2272V17.915H125.976V0.796776H122.821V6.86185C122.354 6.2584 121.753 5.7716 121.065 5.43974C120.378 5.10789 119.623 4.94002 118.86 4.94933C115.998 4.94933 113.361 7.22045 113.361 11.5523C113.361 15.8555 115.978 18.1553 118.86 18.1553C119.625 18.166 120.382 17.9968 121.071 17.6613C121.759 17.3258 122.358 16.8333 122.821 16.2236M119.667 15.7096C117.906 15.7096 116.512 14.2418 116.512 11.5523C116.512 8.86282 117.906 7.39497 119.667 7.39497C121.427 7.39497 122.821 8.86163 122.821 11.5571C122.821 14.2525 121.427 15.7144 119.667 15.7144" fill="white"/>
<path d="M136.512 12.1671C136.512 14.4382 135.46 15.7124 133.7 15.7124C132.159 15.7124 131.328 14.6366 131.328 12.558V5.19717H128.174V13.023C128.174 16.5205 129.958 18.1629 132.575 18.1629C133.358 18.2034 134.137 18.0316 134.83 17.6657C135.523 17.2997 136.104 16.7533 136.512 16.0842V17.9118H139.667V5.19717H136.512V12.1671Z" fill="white"/>
<path d="M148.626 10.4559L146.205 10.016C145.497 9.89645 144.641 9.72193 144.641 8.84217C144.641 7.96241 145.478 7.39942 146.621 7.39942C147.746 7.39942 148.577 7.8644 148.749 8.81827H151.904C151.586 6.29972 149.091 4.95498 146.621 4.95498C144.005 4.95498 141.482 6.34873 141.482 9.01908C141.482 11.2687 143.193 12.1735 144.905 12.4915L147.351 12.9565C148.206 13.1274 148.964 13.3234 148.964 14.2032C148.964 15.132 148.128 15.7189 146.788 15.7189C145.565 15.7189 144.538 15.23 144.342 14.0562H141.188C141.627 16.7457 143.926 18.1645 146.788 18.1645C149.722 18.1645 152.119 16.6727 152.119 14.0562C152.119 11.7851 150.676 10.8037 148.621 10.4618" fill="white"/>
<path d="M157.56 2.26357H154.405V5.19809H152.645V7.71664H154.405V14.3435C154.405 17.4 156.337 18.3538 159.784 17.914V15.5424C158.414 15.7385 157.558 15.3954 157.558 14.0268V7.71664H159.784V5.19809H157.558L157.56 2.26357Z" fill="white"/>
<path d="M164.441 7.86294V5.19856H161.287V17.9144H164.441V11.9964C164.441 8.05898 166.642 7.52108 169.088 7.86414V5.10055C168.114 4.95667 167.12 5.15296 166.273 5.65635C165.427 6.15974 164.78 6.93827 164.441 7.86294Z" fill="white"/>
<path d="M173.235 5.19717H170.08V17.913H173.235V5.19717Z" fill="white"/>
<path d="M173.259 0.478416H170.031V3.65798H173.259V0.478416Z" fill="white"/>
<path d="M181.051 4.95736C180.197 4.9466 179.349 5.11273 178.562 5.44529C177.775 5.77786 177.065 6.26966 176.477 6.88981C175.889 7.50995 175.436 8.24501 175.146 9.04878C174.856 9.85255 174.735 10.7077 174.791 11.5603C174.734 12.4174 174.855 13.2771 175.148 14.0847C175.441 14.8923 175.898 15.6301 176.492 16.2511C177.085 16.8722 177.801 17.363 178.595 17.6922C179.388 18.0214 180.241 18.1818 181.1 18.1633C182.435 18.2513 183.76 17.8829 184.857 17.1185C185.955 16.3541 186.76 15.2393 187.14 13.957H183.937C183.705 14.5088 183.308 14.9748 182.8 15.2903C182.291 15.6059 181.697 15.7552 181.1 15.7177C180.283 15.7298 179.495 15.4173 178.908 14.8488C178.321 14.2803 177.984 13.5021 177.97 12.6851V12.5142H187.311C187.482 8.13693 185.38 4.95736 181.051 4.95736ZM177.995 10.1666C178.07 9.40795 178.424 8.70433 178.989 8.1925C179.554 7.68068 180.289 7.39722 181.052 7.39722C181.814 7.39722 182.549 7.68068 183.114 8.1925C183.679 8.70433 184.034 9.40795 184.109 10.1666H177.995Z" fill="white"/>
<path d="M195.506 10.4559L193.084 10.016C192.376 9.89645 191.52 9.72193 191.52 8.84217C191.52 7.96241 192.357 7.39942 193.501 7.39942C194.625 7.39942 195.456 7.8644 195.628 8.81827H198.783C198.465 6.29972 195.97 4.95498 193.501 4.95498C190.884 4.95498 188.361 6.34873 188.361 9.01908C188.361 11.2687 190.072 12.1735 191.784 12.4915L194.23 12.9565C195.085 13.1274 195.843 13.3234 195.843 14.2032C195.843 15.132 195.007 15.7189 193.667 15.7189C192.444 15.7189 191.417 15.23 191.222 14.0562H188.066C188.506 16.7457 190.806 18.1645 193.667 18.1645C196.601 18.1645 198.998 16.6727 198.998 14.0562C198.998 11.7851 197.555 10.8037 195.501 10.4618" fill="white"/>
<path d="M58.1558 24.6474C59.1761 24.6027 60.1837 24.8878 61.0294 25.4604C61.8751 26.0331 62.5138 26.8629 62.851 27.8269H66.0055C65.1688 24.4525 62.337 22.1288 58.1558 22.1288C55.846 22.1669 53.6438 23.1111 52.0239 24.758C50.404 26.4048 49.4961 28.6223 49.4961 30.9324C49.4961 33.2424 50.404 35.4599 52.0239 37.1068C53.6438 38.7536 55.846 39.6979 58.1558 39.7359C62.2892 39.7359 65.1257 37.4648 66.0055 34.1119H62.8259C62.4784 35.0591 61.8384 35.8709 60.9985 36.4297C60.1585 36.9885 59.1624 37.2653 58.1546 37.2198C54.7312 37.2198 52.6274 34.4562 52.6274 30.9348C52.6274 27.4134 54.73 24.6498 58.1546 24.6498" fill="white"/>
<path d="M77.9903 31.886C77.9903 27.8756 75.7646 26.5309 72.6831 26.5309C71.3889 26.4542 70.1102 26.8437 69.0784 27.6287C68.0467 28.4137 67.3303 29.5424 67.0591 30.8101H70.1407C70.2175 30.2298 70.5139 29.701 70.9688 29.3325C71.4237 28.9641 72.0026 28.7841 72.5863 28.8295C74.029 28.8295 74.8574 29.5383 74.8574 31.4222V31.7891L72.7058 31.9851C68.5485 32.327 66.7148 33.7949 66.7148 36.0493C66.7148 38.0813 68.3285 39.7416 71.116 39.7416C71.9515 39.8291 72.7933 39.6518 73.5226 39.2348C74.2519 38.8179 74.8317 38.1823 75.1802 37.4179C75.2021 38.1228 75.317 38.8218 75.522 39.4966H78.5295C78.1605 38.326 77.9789 37.1044 77.9916 35.8771L77.9903 31.886ZM74.8598 34.7715C74.8872 35.1489 74.8334 35.5279 74.7021 35.8829C74.5708 36.2378 74.365 36.5605 74.0985 36.8293C73.832 37.098 73.5111 37.3066 73.1572 37.4409C72.8034 37.5752 72.4249 37.6322 72.0472 37.608C70.5315 37.608 69.8705 36.7521 69.8705 35.8473C69.8705 34.6519 70.9714 34.0865 73.3429 33.9156L74.8586 33.8176L74.8598 34.7715Z" fill="white"/>
<path d="M87.3204 26.5309C86.5406 26.4911 85.7643 26.6605 85.072 27.0215C84.3797 27.3826 83.7966 27.9222 83.383 28.5845V26.7748H80.2285V39.4871H83.383V32.5171C83.383 30.246 84.4349 28.9718 86.1956 28.9718C87.7364 28.9718 88.5671 30.0237 88.5671 32.1263V39.4871H91.7216V31.6613C91.7216 28.1649 89.9358 26.5214 87.3192 26.5214" fill="white"/>
<path d="M104.465 31.886C104.465 27.8757 102.239 26.531 99.1589 26.531C97.8646 26.454 96.5854 26.8433 95.5534 27.6284C94.5214 28.4134 93.8049 29.5422 93.5337 30.8102H96.6152C96.6921 30.2298 96.9885 29.701 97.4434 29.3326C97.8984 28.9642 98.4772 28.7841 99.0609 28.8296C100.504 28.8296 101.332 29.5384 101.332 31.4222V31.7892L99.1804 31.9852C95.023 32.3271 93.1895 33.795 93.1895 36.0493C93.1895 38.0814 94.8031 39.7417 97.5906 39.7417C98.4261 39.8291 99.2679 39.6519 99.9972 39.2349C100.726 38.8179 101.306 38.1823 101.655 37.418C101.677 38.1229 101.792 38.8218 101.997 39.4967H105.004C104.635 38.3261 104.453 37.1045 104.466 35.8772L104.465 31.886ZM101.334 34.7715C101.362 35.149 101.308 35.528 101.177 35.8829C101.045 36.2379 100.84 36.5606 100.573 36.8293C100.307 37.0981 99.9857 37.3066 99.6318 37.441C99.278 37.5753 98.8994 37.6322 98.5217 37.608C97.006 37.608 96.3451 36.7522 96.3451 35.8473C96.3451 34.652 97.4459 34.0866 99.8174 33.9157L101.333 33.8177L101.334 34.7715Z" fill="white"/>
<path d="M115.427 28.438C114.959 27.8345 114.358 27.3477 113.671 27.0158C112.984 26.6839 112.228 26.5161 111.465 26.5255C108.604 26.5255 105.967 28.7966 105.967 33.1285C105.967 37.4316 108.583 39.7315 111.465 39.7315C112.231 39.7423 112.988 39.5731 113.676 39.2376C114.364 38.9021 114.964 38.4096 115.427 37.7998V39.4876H118.581V22.3729H115.427V28.438ZM112.272 37.2906C110.511 37.2906 109.118 35.8228 109.118 33.1333C109.118 30.4438 110.511 28.9759 112.272 28.9759C114.033 28.9759 115.427 30.4438 115.427 33.1333C115.427 35.8228 114.033 37.2906 112.272 37.2906Z" fill="white"/>
<path d="M131.47 31.886C131.47 27.8756 129.244 26.5309 126.163 26.5309C124.869 26.4542 123.591 26.8437 122.559 27.6287C121.527 28.4137 120.811 29.5424 120.54 30.8101H123.621C123.698 30.2298 123.994 29.701 124.449 29.3325C124.904 28.9641 125.483 28.7841 126.067 28.8295C127.509 28.8295 128.338 29.5383 128.338 31.4222V31.7891L126.186 31.9851C122.029 32.327 120.195 33.7949 120.195 36.0493C120.195 38.0813 121.809 39.7416 124.597 39.7416C125.432 39.8291 126.274 39.6518 127.003 39.2348C127.732 38.8179 128.312 38.1823 128.66 37.4179C128.682 38.1228 128.797 38.8218 129.002 39.4966H132.01C131.641 38.326 131.459 37.1044 131.472 35.8771L131.47 31.886ZM128.339 34.7715C128.366 35.1489 128.313 35.5279 128.181 35.8829C128.05 36.2378 127.844 36.5605 127.578 36.8293C127.311 37.098 126.99 37.3066 126.636 37.4409C126.283 37.5752 125.904 37.6322 125.526 37.608C124.01 37.608 123.35 36.7521 123.35 35.8473C123.35 34.6519 124.451 34.0865 126.822 33.9156L128.338 33.8176L128.339 34.7715Z" fill="white"/>
<path d="M19.7666 -0.0215836C14.5281 -0.0165254 9.50548 2.06597 5.80028 5.76914C2.09509 9.47232 0.00986336 14.4938 0.00195313 19.7323L0.00195312 39.6465H5.40482V19.7323C5.41146 15.9265 6.92709 12.2786 9.61936 9.58857C12.3116 6.89854 15.9608 5.38595 19.7666 5.38248C21.17 5.379 22.566 5.58528 23.9084 5.99448C26.8564 6.89166 29.4393 8.7097 31.2786 11.182C33.1178 13.6544 34.1166 16.6509 34.1285 19.7323H39.5325C39.5227 14.4942 37.4367 9.47361 33.7317 5.77081C30.0266 2.06801 25.0048 -0.014949 19.7666 -0.0215836Z" fill="white"/>
<path d="M23.4392 19.7323H18.0352C18.0966 24.8082 20.0649 29.6753 23.5491 33.367C27.0333 37.0587 31.7785 39.305 36.8424 39.6596V34.2734C33.214 33.9144 29.844 32.2349 27.3727 29.554C24.9015 26.8732 23.5012 23.3779 23.438 19.7323" fill="white"/>
<path d="M31.5056 19.7926C31.4996 16.6818 30.2608 13.7003 28.0606 11.5012C25.8604 9.30216 22.8782 8.06487 19.7675 8.06045C16.6557 8.06329 13.672 9.29988 11.4706 11.4991C9.26908 13.6984 8.02945 16.6808 8.02344 19.7926V39.6349H13.4275V19.7926C13.4416 18.5127 13.8416 17.2668 14.5753 16.218C15.309 15.1692 16.3422 14.3663 17.5397 13.9142C18.7372 13.4622 20.0432 13.3822 21.287 13.6845C22.5307 13.9869 23.6542 14.6576 24.5105 15.6089C25.0425 16.1641 25.4575 16.8205 25.7308 17.5392C26.0041 18.2579 26.1302 19.0242 26.1015 19.7926C26.0992 22.7453 27.1991 25.5925 29.1858 27.7769C31.1725 29.9613 33.903 31.3254 36.8427 31.6024V26.1565C35.3456 25.895 33.9889 25.1131 33.0122 23.9487C32.0355 22.7843 31.5026 21.3124 31.5056 19.7926Z" fill="white"/>
</svg>
